HIERARCHY
ROOT Hips
{
    OFFSET 0.000000 0.000000 0.000000
    CHANNELS 6 Xposition Yposition Zposition Zrotation Xrotation Yrotation
    JOINT Spine
    {
        OFFSET -0.000000 7.305680 0.000000
        CHANNELS 3 Zrotation Xrotation Yrotation
        JOINT Spine1
        {
            OFFSET -0.000000 20.356600 0.000000
            CHANNELS 3 Zrotation Xrotation Yrotation
            JOINT Neck
            {
                OFFSET -0.000000 22.138500 0.000000
                CHANNELS 3 Zrotation Xrotation Yrotation
                JOINT Head
                {
                    OFFSET -0.000000 13.809501 1.781870
                    CHANNELS 3 Zrotation Xrotation Yrotation
                    End Site
                    {
                        OFFSET -0.000000 17.818779 0.000000
                    }
                }
            }
            JOINT LeftShoulder
            {
                OFFSET 3.599130 17.990000 0.023591
                CHANNELS 3 Zrotation Xrotation Yrotation
                JOINT LeftArm
                {
                    OFFSET 12.560999 0.000000 0.000000
                    CHANNELS 3 Zrotation Xrotation Yrotation
                    JOINT LeftForeArm
                    {
                        OFFSET 22.903299 0.000000 0.000000
                        CHANNELS 3 Zrotation Xrotation Yrotation
                        JOINT LeftHand
                        {
                            OFFSET 21.865299 0.000000 0.000000
                            CHANNELS 3 Zrotation Xrotation Yrotation
                            JOINT LeftHandThumb1
                            {
                                OFFSET 1.853710 -2.106480 2.949080
                                CHANNELS 3 Zrotation Xrotation Yrotation
                                JOINT LeftHandThumb2
                                {
                                    OFFSET 2.049150 0.000000 1.336400
                                    CHANNELS 3 Zrotation Xrotation Yrotation
                                    JOINT LeftHandThumb3
                                    {
                                        OFFSET 2.672810 0.000000 0.000000
                                        CHANNELS 3 Zrotation Xrotation Yrotation
                                        End Site
                                        {
                                            OFFSET 2.381310 0.000000 0.000000
                                        }
                                    }
                                }
                            }
                            JOINT LeftHandIndex1
                            {
                                OFFSET 7.583340 0.000000 2.949080
                                CHANNELS 3 Zrotation Xrotation Yrotation
                                JOINT LeftHandIndex2
                                {
                                    OFFSET 4.454680 0.000000 0.000000
                                    CHANNELS 3 Zrotation Xrotation Yrotation
                                    JOINT LeftHandIndex3
                                    {
                                        OFFSET 2.227340 0.000000 0.000000
                                        CHANNELS 3 Zrotation Xrotation Yrotation
                                        End Site
                                        {
                                            OFFSET 1.984424 0.000000 0.000000
                                        }
                                    }
                                }
                            }
                            JOINT LeftHandMiddle1
                            {
                                OFFSET 7.583340 0.000000 0.977409
                                CHANNELS 3 Zrotation Xrotation Yrotation
                                JOINT LeftHandMiddle2
                                {
                                    OFFSET 4.900150 0.000000 0.000000
                                    CHANNELS 3 Zrotation Xrotation Yrotation
                                    JOINT LeftHandMiddle3
                                    {
                                        OFFSET 2.672810 0.000000 0.000000
                                        CHANNELS 3 Zrotation Xrotation Yrotation
                                        End Site
                                        {
                                            OFFSET 2.381310 0.000000 0.000000
                                        }
                                    }
                                }
                            }
                            JOINT LeftHandRing1
                            {
                                OFFSET 7.162050 0.000000 -0.977409
                                CHANNELS 3 Zrotation Xrotation Yrotation
                                JOINT LeftHandRing2
                                {
                                    OFFSET 4.454680 0.000000 0.000000
                                    CHANNELS 3 Zrotation Xrotation Yrotation
                                    JOINT LeftHandRing3
                                    {
                                        OFFSET 2.227340 0.000000 0.000000
                                        CHANNELS 3 Zrotation Xrotation Yrotation
                                        End Site
                                        {
                                            OFFSET 1.984424 0.000000 0.000000
                                        }
                                    }
                                }
                            }
                            JOINT LeftHandPinky1
                            {
                                OFFSET 6.740750 0.000000 -2.949080
                                CHANNELS 3 Zrotation Xrotation Yrotation
                                JOINT LeftHandPinky2
                                {
                                    OFFSET 3.563750 0.000000 0.000000
                                    CHANNELS 3 Zrotation Xrotation Yrotation
                                    JOINT LeftHandPinky3
                                    {
                                        OFFSET 1.781870 0.000000 0.000000
                                        CHANNELS 3 Zrotation Xrotation Yrotation
                                        End Site
                                        {
                                            OFFSET 1.587538 0.000000 0.000000
                                        }
                                    }
                                }
                            }
                        }
                    }
                }
            }
            JOINT RightShoulder
            {
                OFFSET -3.506990 17.990000 0.023591
                CHANNELS 3 Zrotation Xrotation Yrotation
                JOINT RightArm
                {
                    OFFSET -12.560999 0.000000 0.000000
                    CHANNELS 3 Zrotation Xrotation Yrotation
                    JOINT RightForeArm
                    {
                        OFFSET -22.903299 0.000000 0.000000
                        CHANNELS 3 Zrotation Xrotation Yrotation
                        JOINT RightHand
                        {
                            OFFSET -21.865299 0.000000 0.000000
                            CHANNELS 3 Zrotation Xrotation Yrotation
                            JOINT RightHandThumb1
                            {
                                OFFSET -1.853710 -2.106480 2.949080
                                CHANNELS 3 Zrotation Xrotation Yrotation
                                JOINT RightHandThumb2
                                {
                                    OFFSET -2.049150 0.000000 1.336400
                                    CHANNELS 3 Zrotation Xrotation Yrotation
                                    JOINT RightHandThumb3
                                    {
                                        OFFSET -2.672810 0.000000 0.000000
                                        CHANNELS 3 Zrotation Xrotation Yrotation
                                        End Site
                                        {
                                            OFFSET -2.381310 0.000000 0.000000
                                        }
                                    }
                                }
                            }
                            JOINT RightHandIndex1
                            {
                                OFFSET -7.583340 0.000000 2.949080
                                CHANNELS 3 Zrotation Xrotation Yrotation
                                JOINT RightHandIndex2
                                {
                                    OFFSET -4.454680 0.000000 0.000000
                                    CHANNELS 3 Zrotation Xrotation Yrotation
                                    JOINT RightHandIndex3
                                    {
                                        OFFSET -2.227340 0.000000 0.000000
                                        CHANNELS 3 Zrotation Xrotation Yrotation
                                        End Site
                                        {
                                            OFFSET -1.984424 0.000000 0.000000
                                        }
                                    }
                                }
                            }
                            JOINT RightHandMiddle1
                            {
                                OFFSET -7.583340 0.000000 0.977409
                                CHANNELS 3 Zrotation Xrotation Yrotation
                                JOINT RightHandMiddle2
                                {
                                    OFFSET -4.900150 0.000000 0.000000
                                    CHANNELS 3 Zrotation Xrotation Yrotation
                                    JOINT RightHandMiddle3
                                    {
                                        OFFSET -2.672810 0.000000 0.000000
                                        CHANNELS 3 Zrotation Xrotation Yrotation
                                        End Site
                                        {
                                            OFFSET -2.381310 0.000000 0.000000
                                        }
                                    }
                                }
                            }
                            JOINT RightHandRing1
                            {
                                OFFSET -7.162050 0.000000 -0.977409
                                CHANNELS 3 Zrotation Xrotation Yrotation
                                JOINT RightHandRing2
                                {
                                    OFFSET -4.454680 0.000000 0.000000
                                    CHANNELS 3 Zrotation Xrotation Yrotation
                                    JOINT RightHandRing3
                                    {
                                        OFFSET -2.227340 0.000000 0.000000
                                        CHANNELS 3 Zrotation Xrotation Yrotation
                                        End Site
                                        {
                                            OFFSET -1.984424 0.000000 0.000000
                                        }
                                    }
                                }
                            }
                            JOINT RightHandPinky1
                            {
                                OFFSET -6.740750 0.000000 -2.949080
                                CHANNELS 3 Zrotation Xrotation Yrotation
                                JOINT RightHandPinky2
                                {
                                    OFFSET -3.563750 0.000000 0.000000
                                    CHANNELS 3 Zrotation Xrotation Yrotation
                                    JOINT RightHandPinky3
                                    {
                                        OFFSET -1.781870 0.000000 0.000000
                                        CHANNELS 3 Zrotation Xrotation Yrotation
                                        End Site
                                        {
                                            OFFSET -1.587538 0.000000 0.000000
                                        }
                                    }
                                }
                            }
                        }
                    }
                }
            }
        }
    }
    JOINT LeftUpLeg
    {
        OFFSET 8.909360 0.000000 0.000000
        CHANNELS 3 Zrotation Xrotation Yrotation
        JOINT LeftLeg
        {
            OFFSET -0.000000 -38.765602 0.000000
            CHANNELS 3 Zrotation Xrotation Yrotation
            JOINT LeftFoot
            {
                OFFSET -0.000000 -35.245003 0.000000
                CHANNELS 3 Zrotation Xrotation Yrotation
                JOINT LeftToeBase
                {
                    OFFSET -0.000000 -5.791090 13.364000
                    CHANNELS 3 Zrotation Xrotation Yrotation
                    End Site
                    {
                        OFFSET -0.000000 0.000000 3.563756
                    }
                }
            }
        }
    }
    JOINT RightUpLeg
    {
        OFFSET -8.909360 0.000000 0.000000
        CHANNELS 3 Zrotation Xrotation Yrotation
        JOINT RightLeg
        {
            OFFSET -0.000000 -38.765602 0.000000
            CHANNELS 3 Zrotation Xrotation Yrotation
            JOINT RightFoot
            {
                OFFSET -0.000000 -35.245003 0.000000
                CHANNELS 3 Zrotation Xrotation Yrotation
                JOINT RightToeBase
                {
                    OFFSET -0.000000 -5.791090 13.364000
                    CHANNELS 3 Zrotation Xrotation Yrotation
                    End Site
                    {
                        OFFSET -0.000000 0.000000 3.563756
                    }
                }
            }
        }
    }
}
MOTION
Frames:    5
Frame Time:    0.033333
-1.506845    81.570114    102.718903    -0.907939    4.019331    9.777063    -0.421942    -1.355721    -0.019629    -2.592030    3.795269    0.069751    2.167364    -6.918674    -0.650002    5.683520    -5.877236    -0.961933    2.716806    5.183916    -10.987159    -82.496483    21.154596    0.424835    16.051832    -3.483016    -5.691460    -11.792133    -31.535877    2.934525    0.794315    1.348202    2.581810    -0.000000    0.000000    2.493355    -0.000000    0.000000    4.986711    -14.348617    2.607970    -10.086301    -29.157614    0.000000    0.000000    -14.578804    0.000000    0.000000    -24.589676    -0.244489    -2.879543    -49.174168    0.000000    0.000000    -24.587080    0.000000    0.000000    -34.419052    -4.309772    3.723619    -69.190712    0.000000    0.000000    -34.595364    0.000000    0.000000    -44.086475    -9.588963    9.758112    -89.813820    0.000000    0.000000    -44.906910    0.000000    0.000000    -5.335806    -1.019850    1.183336    96.291206    43.230156    -8.280414    -14.324961    -27.417267    6.065223    18.752520    -33.423351    -2.237851    -0.311816    -1.671919    2.396090    0.000000    0.000000    0.000000    0.000000    0.000000    0.000000    6.250216    0.000000    -0.000000    12.500432    0.000000    -0.000000    6.250216    0.000000    -0.000000    15.479558    -1.443440    -3.103090    31.082052    0.000000    -0.000000    15.541025    0.000000    -0.000000    24.629059    -3.363933    -5.938096    49.663673    0.000000    -0.000000    24.831833    0.000000    -0.000000    33.973431    -5.785725    -8.508587    68.808372    0.000000    -0.000000    34.404179    0.000000    -0.000000    -0.141871    -0.257648    -2.230530    3.634394    -10.611650    29.041115    -4.612997    6.878001    -32.674809    0.383841    -4.840190    -1.696577    -0.061052    -2.108687    2.729146    -0.404574    -0.477491    -11.964907    4.335076    -3.932640    0.674175    -0.373584    -1.753129    0.415094    
-1.629645    81.573288    102.556335    -0.685377    4.209459    10.106615    -1.205426    -1.246783    -0.564130    -1.966990    3.456807    -0.124665    2.128355    -7.003756    -0.232340    5.857837    -5.731894    -0.555441    2.901558    5.190545    -11.056842    -83.544655    22.211264    0.499315    15.106227    -3.446176    -3.910297    -9.175790    -32.629932    4.951631    0.793166    1.625269    2.917009    -0.000000    0.000000    2.809289    -0.000000    0.000000    5.618578    -13.678645    2.277192    -9.272306    -27.726665    0.000000    0.000000    -13.863333    0.000000    0.000000    -23.905499    -0.466146    -2.332791    -47.810074    0.000000    0.000000    -23.905041    0.000000    0.000000    -33.753330    -4.377666    4.027211    -67.893471    0.000000    0.000000    -33.946743    0.000000    0.000000    -43.476738    -9.461915    9.835822    -88.585464    0.000000    0.000000    -44.292732    0.000000    0.000000    -5.500876    -1.490714    1.213085    95.272911    43.573978    -7.435652    -15.655869    -27.694197    7.220730    18.369963    -34.190189    -1.640260    -0.228598    -1.595537    2.335239    0.000000    0.000000    0.000000    0.000000    0.000000    0.000000    6.243735    0.013943    0.127444    12.487503    0.000000    -0.000000    6.243752    0.000000    -0.000000    15.549392    -1.390206    -2.919766    31.211853    0.000000    -0.000000    15.605928    0.000000    -0.000000    24.778534    -3.266778    -5.703162    49.936214    0.000000    -0.000000    24.968105    0.000000    -0.000000    34.208221    -5.639015    -8.224648    69.227951    0.000000    -0.000000    34.613976    0.000000    -0.000000    -0.329793    -1.276338    -2.488124    3.471809    -9.238354    27.198517    -4.538455    6.488618    -30.988886    0.386145    -4.892607    -1.711883    -0.212043    -1.407914    2.432568    -0.626287    -2.260039    -12.475804    4.702953    -3.742922    0.995136    -0.397108    -1.804167    0.447507    
-1.727552    81.608047    102.437462    -0.423398    4.228423    10.060436    -1.764302    -1.092886    -0.743941    -1.673665    3.311142    -0.194212    2.177504    -7.144964    0.122489    6.018111    -5.749237    -0.200109    3.083503    5.043841    -11.312845    -84.506752    23.500389    0.689525    14.110806    -4.210348    -2.578451    -7.890552    -33.423626    6.504363    0.769974    1.773203    3.069730    -0.000000    0.000000    2.951583    -0.000000    0.000000    5.903165    -13.217916    2.074344    -8.760740    -26.753662    0.000000    0.000000    -13.376829    0.000000    0.000000    -23.518257    -0.629646    -1.958739    -47.041138    0.000000    0.000000    -23.520573    0.000000    0.000000    -33.454323    -4.487245    4.268121    -67.328629    0.000000    0.000000    -33.664314    0.000000    0.000000    -43.287014    -9.503013    9.941746    -88.230881    0.000000    0.000000    -44.115440    0.000000    0.000000    -5.566454    -1.925405    1.350146    94.387894    43.890396    -6.615849    -17.028202    -28.176863    8.403680    17.902332    -35.110954    -0.842889    -0.240467    -1.493473    2.169735    0.000000    0.000000    0.000000    0.000000    0.000000    0.000000    6.136534    0.022179    0.206290    12.273149    0.000000    -0.000000    6.136575    0.000000    -0.000000    15.475141    -1.370951    -2.853096    31.060383    0.000000    -0.000000    15.530194    0.000000    -0.000000    24.737242    -3.240217    -5.649181    49.847610    0.000000    -0.000000    24.923805    0.000000    -0.000000    34.200546    -5.608622    -8.183391    69.204155    0.000000    -0.000000    34.602077    0.000000    -0.000000    -0.558971    -2.068914    -1.856591    3.277609    -7.870944    25.545931    -4.319548    6.234634    -30.040003    0.389248    -4.912790    -1.723822    -0.328237    -0.833396    2.641967    -0.899191    -3.476533    -13.409979    5.008934    -3.586122    1.595033    -0.391755    -1.842204    0.435130    
-1.780216    81.629295    102.398239    -0.277945    3.946207    9.212778    -1.700022    -0.946348    -0.258187    -1.983909    3.491344    -0.021320    2.284656    -7.300819    0.409679    6.153586    -5.939983    0.100434    3.238330    4.836744    -11.642777    -85.211449    24.630911    0.835725    13.329083    -5.050466    -1.993138    -8.676789    -33.454990    6.853942    0.686773    1.746350    2.937022    -0.000000    0.000000    2.851648    -0.000000    0.000000    5.703297    -13.265479    2.038952    -8.582058    -26.836964    0.000000    0.000000    -13.418483    0.000000    0.000000    -23.669346    -0.755193    -1.735677    -47.349506    0.000000    0.000000    -23.674753    0.000000    0.000000    -33.697460    -4.720017    4.513320    -67.862045    0.000000    0.000000    -33.931026    0.000000    0.000000    -43.617504    -9.857144    10.185081    -88.996185    0.000000    0.000000    -44.498093    0.000000    0.000000    -5.552866    -2.322053    1.602921    93.706726    44.593327    -5.851550    -18.419628    -28.853123    9.534132    17.487619    -36.086849    0.148754    -0.298910    -1.381573    1.957458    0.000000    0.000000    0.000000    0.000000    0.000000    0.000000    6.011885    0.024339    0.231112    12.023870    0.000000    -0.000000    6.011935    0.000000    -0.000000    15.370030    -1.361113    -2.833261    30.849106    0.000000    -0.000000    15.424547    0.000000    -0.000000    24.651815    -3.224568    -5.634853    49.674343    0.000000    -0.000000    24.837168    0.000000    -0.000000    34.135319    -5.588874    -8.174788    69.070030    0.000000    -0.000000    34.535011    0.000000    -0.000000    -0.611997    -2.248352    -0.744681    3.164644    -6.913616    24.420956    -3.941140    6.236984    -29.263456    0.389717    -4.872817    -1.718190    -0.284350    -0.484461    3.281732    -1.103907    -3.821991    -13.963367    5.162018    -3.386556    2.215634    -0.378529    -1.869902    0.411210    
-1.771154    81.600967    102.441681    -0.262343    3.402385    7.621875    -1.064103    -0.772795    0.695927    -2.767556    3.845697    0.327219    2.327871    -7.366129    0.699612    6.222699    -6.168159    0.408687    3.317789    4.781318    -11.774273    -85.718651    25.180296    0.816958    13.098529    -5.218888    -2.273484    -10.820119    -32.477337    6.059775    0.615973    1.549961    2.612159    -0.000000    0.000000    2.579588    -0.000000    0.000000    5.159176    -13.818674    2.170305    -8.752647    -27.969576    0.000000    0.000000    -13.984788    0.000000    0.000000    -24.226093    -0.767128    -1.762097    -48.464653    0.000000    0.000000    -24.232327    0.000000    0.000000    -34.232643    -4.897543    4.604586    -68.959740    0.000000    0.000000    -34.479870    0.000000    0.000000    -44.107800    -10.220261    10.372956    -90.075874    0.000000    0.000000    -45.037937    0.000000    0.000000    -5.599546    -2.715093    1.944951    93.177032    45.962795    -5.135896    -19.764097    -29.518810    10.496675    17.380871    -36.820820    1.170567    -0.364298    -1.310873    1.804293    0.000000    0.000000    0.000000    0.000000    0.000000    0.000000    5.918550    0.017783    0.171539    11.837154    0.000000    -0.000000    5.918577    0.000000    -0.000000    15.275156    -1.366603    -2.881198    30.661015    0.000000    -0.000000    15.330506    0.000000    -0.000000    24.555849    -3.227056    -5.671521    49.484879    0.000000    -0.000000    24.742437    0.000000    -0.000000    34.038803    -5.586380    -8.200506    68.879166    0.000000    -0.000000    34.439583    0.000000    -0.000000    -0.489204    -1.754631    0.002492    3.160445    -6.492337    23.893084    -3.500605    6.344160    -27.950016    0.386203    -4.752927    -1.688005    -0.157737    -0.445042    3.560614    -1.074702    -3.193799    -13.203562    5.150430    -3.226837    2.703578    -0.375689    -1.901454    0.403484    
